<?xml version="1.0" standalone="no"?>
<!DOCTYPE svg PUBLIC "-//W3C//DTD SVG 20010904//EN"
 "http://www.w3.org/TR/2001/REC-SVG-20010904/DTD/svg10.dtd">
<svg version="1.0" xmlns="http://www.w3.org/2000/svg"
 width="1280.000000pt" height="1244.000000pt" viewBox="0 0 1280.000000 1244.000000"
 preserveAspectRatio="xMidYMid meet">
<metadata>
Created by potrace 1.15, written by Peter Selinger 2001-2017
</metadata>
<g transform="translate(0.000000,1244.000000) scale(0.100000,-0.100000)"
fill="#000000" stroke="none">
<path d="M11990 12410 c-195 -16 -408 -32 -472 -36 -65 -4 -118 -8 -118 -10 0
-4 578 -815 589 -826 6 -7 676 37 729 48 23 5 23 5 6 32 -14 21 -22 83 -40
292 -25 292 -33 340 -70 418 -36 74 -90 105 -193 108 -42 2 -236 -10 -431 -26z"/>
<path d="M11065 12340 c-121 -10 -411 -32 -645 -49 -234 -17 -442 -35 -463
-39 l-39 -7 287 -400 c157 -220 292 -406 299 -413 11 -11 127 -5 692 37 374
28 702 54 730 57 l51 6 -294 411 -294 412 -52 1 c-29 1 -151 -6 -272 -16z"/>
<path d="M9605 12229 c-235 -19 -1154 -89 -1167 -89 -4 0 126 -187 290 -416
l297 -417 95 6 c52 4 363 26 690 51 327 25 614 46 638 48 23 1 42 5 42 8 0 3
-132 190 -293 415 -285 399 -294 410 -328 411 -19 1 -137 -6 -264 -17z"/>
<path d="M8095 12115 c-159 -13 -326 -26 -370 -29 -368 -28 -743 -57 -758 -59
-15 -1 48 -95 278 -417 164 -228 298 -416 299 -416 0 -1 105 6 231 16 127 10
455 35 730 56 275 20 501 38 503 39 2 2 -130 189 -293 416 -179 250 -302 415
-313 415 -9 1 -147 -8 -307 -21z"/>
<path d="M6915 12025 c-5 -2 -332 -27 -725 -56 -393 -29 -717 -54 -719 -55 -2
-2 130 -191 294 -420 l298 -416 56 6 c31 3 180 15 331 26 151 11 358 27 460
35 102 8 282 22 400 31 118 8 216 16 216 17 3 3 -576 811 -589 823 -7 7 -16
10 -22 9z"/>
<path d="M5110 11889 c-129 -11 -432 -34 -673 -53 -240 -18 -440 -35 -443 -38
-3 -4 550 -791 582 -826 4 -5 1455 106 1461 111 2 3 -128 190 -289 415 l-293
411 -55 -1 c-30 0 -161 -9 -290 -19z"/>
<path d="M3730 11784 c-91 -7 -376 -29 -635 -49 -258 -19 -498 -38 -532 -41
l-63 -6 18 -27 c30 -42 35 -58 12 -31 -12 14 -28 33 -34 42 -11 16 -42 14
-456 -18 -245 -18 -457 -34 -472 -34 -25 0 -28 -4 -28 -35 0 -27 -11 -48 -45
-90 -54 -67 -75 -133 -75 -240 0 -90 16 -158 49 -203 15 -22 21 -45 21 -86 0
-42 4 -56 14 -56 12 0 15 -64 18 -417 3 -371 5 -422 21 -458 16 -38 17 -264
20 -4210 2 -3986 3 -4173 20 -4230 30 -98 102 -235 161 -307 96 -116 253 -217
411 -265 57 -17 268 -18 4930 -20 5345 -3 4939 -8 5101 57 230 92 388 271 473
535 14 45 16 421 18 4163 3 3637 5 4112 18 4112 13 0 15 53 15 408 0 343 2
411 15 428 8 10 15 22 15 27 0 4 -169 6 -376 5 l-377 -3 -249 -410 c-137 -225
-253 -417 -258 -425 -5 -8 -10 -13 -13 -10 -2 3 110 193 249 423 140 230 254
420 254 422 0 3 -330 5 -733 5 l-734 0 -258 -425 c-142 -234 -262 -425 -266
-425 -5 0 6 24 25 53 18 28 131 214 251 412 120 198 222 366 228 373 7 9 -140
12 -729 12 l-739 0 -255 -421 c-225 -373 -270 -443 -270 -426 0 4 153 257 507
840 2 4 -328 7 -734 7 l-738 -1 -255 -424 c-140 -233 -259 -424 -263 -425 -5
0 0 15 11 33 11 17 126 208 256 422 l236 390 -732 3 c-640 2 -734 0 -744 -13
-6 -8 -123 -199 -260 -425 -137 -225 -252 -410 -256 -410 -4 0 69 127 164 283
283 467 338 558 338 563 0 2 -330 4 -734 4 l-733 0 -258 -425 c-141 -234 -260
-424 -262 -421 -4 4 73 134 398 669 l108 177 -737 0 -737 0 -255 -421 c-224
-371 -270 -443 -270 -426 0 2 114 192 254 423 l254 419 -274 3 -274 2 0 35 c0
21 5 35 13 36 6 0 137 10 290 22 l278 22 -46 63 c-26 35 -44 66 -42 69 3 2 26
-25 52 -61 37 -53 52 -66 73 -66 60 0 1389 101 1414 108 26 7 23 13 -267 417
l-294 410 -38 1 c-21 1 -112 -4 -203 -12z"/>
</g>
</svg>
